# xmcd
#
# Track frame offsets:
# 150
# 16525
# 40857
# 55161
#
# Disc length: 999 seconds
#
#
# Revision: 0
# Processed by: cddbd v1.5.2PL0 Copyright (c) Steve Scherf et al.
# Submitted via: FreeRIP 2.951 
#
DISCID=2203e504
DTITLE=The Lucky - Kicking Through the Cinders EP
DYEAR=2005
DGENRE=Blues
TTITLE0=Kicking Through the Cinders (radio edit)
TTITLE1=Condolence
TTITLE2=Lady Midnight
TTITLE3=Kicking Through the Cinders
EXTD=
EXTT0=
EXTT1=
EXTT2=
EXTT3=
PLAYORDER=
